ffmpeg version N-94089-gbc3306fd5b Copyright (c) 2000-2019 the FFmpeg developers
  built with gcc 9.1.1 (GCC) 20190621
  configuration: --disable-static --enable-shared --enable-gpl --enable-version3 --enable-sdl2 --enable-fontconfig --enable-gnutls --enable-iconv --enable-libass --enable-libdav1d --enable-libbluray --enable-libfreetype --enable-libmp3lame --enable-libopencore-amrnb --enable-libopencore-amrwb --enable-libopenjpeg --enable-libopus --enable-libshine --enable-libsnappy --enable-libsoxr --enable-libtheora --enable-libtwolame --enable-libvpx --enable-libwavpack --enable-libwebp --enable-libx264 --enable-libx265 --enable-libxml2 --enable-libzimg --enable-lzma --enable-zlib --enable-gmp --enable-libvidstab --enable-libvorbis --enable-libvo-amrwbenc --enable-libmysofa --enable-libspeex --enable-libxvid --enable-libaom --enable-libmfx --enable-amf --enable-ffnvcodec --enable-cuvid --enable-d3d11va --enable-nvenc --enable-nvdec --enable-dxva2 --enable-avisynth --enable-libopenmpt
  libavutil      56. 29.100 / 56. 29.100
  libavcodec     58. 53.100 / 58. 53.100
  libavformat    58. 28.100 / 58. 28.100
  libavdevice    58.  7.100 / 58.  7.100
  libavfilter     7. 55.100 /  7. 55.100
  libswscale      5.  4.101 /  5.  4.101
  libswresample   3.  4.100 /  3.  4.100
  libpostproc    55.  4.100 / 55.  4.100
Input #0, mov,mp4,m4a,3gp,3g2,mj2, from 'C:\Users\pickuse\Desktop\ffmpegTest\public/uploads/2nhphecPLcbHYuPLNLcQ3vIWcc7xEkeT4BDSFT6Q//orig.mp4':
  Metadata:
    major_brand     : isom
    minor_version   : 512
    compatible_brands: isomiso2avc1mp41
    encoder         : Lavf58.12.100
  Duration: 00:00:05.04, start: 0.000000, bitrate: 353 kb/s
    Stream #0:0(und): Video: h264 (High) (avc1 / 0x31637661), yuv420p(tv, bt709), 1920x1080 [SAR 1:1 DAR 16:9], 216 kb/s, 29.97 fps, 29.97 tbr, 90k tbn, 59.94 tbc (default)
    Metadata:
      handler_name    : VideoHandler
    Stream #0:1(und): Audio: aac (LC) (mp4a / 0x6134706D), 44100 Hz, stereo, fltp, 126 kb/s (default)
    Metadata:
      handler_name    : SoundHandler
Stream mapping:
  Stream #0:0 -> #0:0 (h264 (native) -> h264 (libx264))
  Stream #0:1 -> #0:1 (aac (native) -> aac (native))
Press [q] to stop, [?] for help
[libx264 @ 02310fc0] using SAR=1/1
[libx264 @ 02310fc0] using cpu capabilities: MMX2 SSE2Fast SSSE3 SSE4.2 AVX FMA3 BMI2 AVX2
[libx264 @ 02310fc0] profile Progressive High, level 3.1, 4:2:0, 8-bit
[libx264 @ 02310fc0] 264 - core 157 r2970 5493be8 - H.264/MPEG-4 AVC codec - Copyleft 2003-2019 - http://www.videolan.org/x264.html - options: cabac=1 ref=3 deblock=1:0:0 analyse=0x3:0x113 me=hex subme=7 psy=1 psy_rd=1.00:0.00 mixed_ref=1 me_range=16 chroma_me=1 trellis=1 8x8dct=1 cqm=0 deadzone=21,11 fast_pskip=1 chroma_qp_offset=-2 threads=6 lookahead_threads=1 sliced_threads=0 nr=0 decimate=1 interlaced=0 bluray_compat=0 constrained_intra=0 bframes=3 b_pyramid=2 b_adapt=1 b_bias=0 direct=1 weightb=1 open_gop=0 weightp=2 keyint=250 keyint_min=25 scenecut=40 intra_refresh=0 rc_lookahead=40 rc=abr mbtree=1 bitrate=162 ratetol=1.0 qcomp=0.60 qpmin=0 qpmax=69 qpstep=4 ip_ratio=1.40 aq=1:1.00
Output #0, mp4, to 'C:\Users\pickuse\Desktop\ffmpegTest\public/uploads/2nhphecPLcbHYuPLNLcQ3vIWcc7xEkeT4BDSFT6Q//720p.mp4':
  Metadata:
    major_brand     : isom
    minor_version   : 512
    compatible_brands: isomiso2avc1mp41
    encoder         : Lavf58.28.100
    Stream #0:0(und): Video: h264 (libx264) (avc1 / 0x31637661), yuv420p, 1280x720 [SAR 1:1 DAR 16:9], q=-1--1, 162 kb/s, 29.97 fps, 30k tbn, 29.97 tbc (default)
    Metadata:
      handler_name    : VideoHandler
      encoder         : Lavc58.53.100 libx264
    Side data:
      cpb: bitrate max/min/avg: 0/0/162000 buffer size: 0 vbv_delay: -1
    Stream #0:1(und): Audio: aac (LC) (mp4a / 0x6134706D), 44100 Hz, stereo, fltp, 128 kb/s (default)
    Metadata:
      handler_name    : SoundHandler
      encoder         : Lavc58.53.100 aac
frame=   46 fps=0.0 q=0.0 size=       0kB time=00:00:01.62 bitrate=   0.2kbits/s speed=2.88x    frame=   83 fps= 77 q=47.0 size=       0kB time=00:00:02.85 bitrate=   0.1kbits/s speed=2.64x    frame=  117 fps= 74 q=44.0 size=       0kB time=00:00:03.99 bitrate=   0.1kbits/s speed=2.53x    frame=  151 fps= 73 q=42.0 size=       0kB time=00:00:04.96 bitrate=   0.1kbits/s speed=2.39x    [mp4 @ 0230fc00] Starting second pass: moving the moov atom to the beginning of the file
frame=  151 fps= 59 q=-1.0 Lsize=     144kB time=00:00:05.01 bitrate= 234.5kbits/s speed=1.97x    
video:56kB audio:81kB subtitle:0kB other streams:0kB global headers:0kB muxing overhead: 4.871873%
[libx264 @ 02310fc0] frame I:1     Avg QP:41.62  size: 10322
[libx264 @ 02310fc0] frame P:38    Avg QP:34.21  size:   953
[libx264 @ 02310fc0] frame B:112   Avg QP:42.49  size:    91
[libx264 @ 02310fc0] consecutive B-frames:  0.7%  0.0%  4.0% 95.4%
[libx264 @ 02310fc0] mb I  I16..4: 27.2% 70.6%  2.1%
[libx264 @ 02310fc0] mb P  I16..4:  0.6%  0.7%  0.0%  P16..4:  4.9%  0.3%  0.6%  0.0%  0.0%    skip:93.0%
[libx264 @ 02310fc0] mb B  I16..4:  0.0%  0.0%  0.0%  B16..8:  2.6%  0.0%  0.0%  direct: 0.0%  skip:97.4%  L0: 0.5% L1:99.5% BI: 0.0%
[libx264 @ 02310fc0] final ratefactor: 35.48
[libx264 @ 02310fc0] 8x8 transform intra:65.4% inter:75.5%
[libx264 @ 02310fc0] coded y,uvDC,uvAC intra: 18.7% 35.8% 12.5% inter: 0.4% 0.6% 0.0%
[libx264 @ 02310fc0] i16 v,h,dc,p: 13% 68%  6% 12%
[libx264 @ 02310fc0] i8 v,h,dc,ddl,ddr,vr,hd,vl,hu: 24% 24% 40%  2%  2%  2%  2%  2%  3%
[libx264 @ 02310fc0] i4 v,h,dc,ddl,ddr,vr,hd,vl,hu: 27% 40% 13%  3%  5%  4%  4%  3%  2%
[libx264 @ 02310fc0] i8c dc,h,v,p: 71% 21%  6%  1%
[libx264 @ 02310fc0] Weighted P-Frames: Y:0.0% UV:0.0%
[libx264 @ 02310fc0] ref P L0: 82.0% 12.7%  4.2%  1.1%
[libx264 @ 02310fc0] ref B L0: 69.0% 31.0%
[libx264 @ 02310fc0] ref B L1: 84.2% 15.8%
[libx264 @ 02310fc0] kb/s:90.09
[aac @ 027ff900] Qavg: 1188.330
